<?xml version="1.0" standalone="no"?>
<!DOCTYPE svg PUBLIC "-//W3C//DTD SVG 20010904//EN"
 "http://www.w3.org/TR/2001/REC-SVG-20010904/DTD/svg10.dtd">
<svg version="1.0" xmlns="http://www.w3.org/2000/svg"
 width="200.000000pt" height="200.000000pt" viewBox="0 0 200.000000 200.000000"
 preserveAspectRatio="xMidYMid meet">
<metadata>
Created by potrace 1.11, written by Peter Selinger 2001-2013
</metadata>
<g transform="translate(0.000000,200.000000) scale(0.100000,-0.100000)"
fill="#000000" stroke="none">
<path d="M1154 1466 c-6 -6 -48 -45 -95 -86 -46 -41 -104 -94 -129 -116 -25
-23 -63 -58 -86 -78 l-41 -36 -1 -86 c-2 -70 1 -84 12 -77 12 7 136 117 323
288 l34 31 -3 86 c-2 62 -6 83 -14 74z"/>
<path d="M1410 1475 c-3 -5 -45 -46 -95 -90 -118 -105 -139 -124 -208 -187
l-58 -53 3 -85 3 -84 115 103 c63 57 146 132 183 166 l68 62 -3 89 c-2 49 -5
85 -8 79z"/>
<path d="M869 1414 c-35 -31 -104 -94 -154 -139 -49 -45 -103 -93 -118 -106
-26 -23 -28 -30 -31 -111 -2 -67 0 -85 10 -80 6 4 52 43 100 87 49 44 109 98
134 120 130 115 120 100 124 198 1 48 2 87 1 87 -2 0 -31 -25 -66 -56z"/>
<path d="M242 793 l3 -38 -45 3 c-47 2 -69 -9 -88 -45 -20 -37 -14 -73 17
-104 30 -30 83 -40 97 -18 4 8 9 8 17 0 6 -6 19 -11 29 -11 19 0 20 9 20 145
0 105 0 105 -28 105 -23 0 -25 -3 -22 -37z m-21 -83 c41 -22 10 -98 -35 -84
-27 8 -26 7 -31 33 -5 26 14 61 33 61 7 0 22 -5 33 -10z"/>
<path d="M1400 783 c0 -37 -3 -44 -12 -35 -21 21 -73 14 -102 -13 -68 -63 5
-185 90 -146 13 6 24 7 24 2 0 -5 11 -8 25 -8 l25 0 0 123 0 124 -25 0 c-23 0
-25 -4 -25 -47z m-16 -79 c9 -8 16 -24 16 -34 0 -22 -25 -50 -45 -50 -20 0
-45 28 -45 50 0 22 25 50 45 50 7 0 21 -7 29 -16z"/>
<path d="M709 799 c-11 -22 -2 -29 38 -29 l33 0 0 -95 c0 -95 0 -95 25 -95 23
0 25 4 26 48 3 148 0 136 39 142 45 6 56 40 13 41 -162 4 -165 4 -174 -12z"/>
<path d="M1680 811 c0 -3 16 -29 36 -58 l36 -53 -18 -26 c-11 -15 -29 -42 -42
-60 l-22 -34 30 0 c24 0 35 8 56 40 l27 40 29 -40 c21 -27 37 -40 54 -40 32 0
30 11 -11 69 -19 26 -35 51 -35 55 0 4 16 28 36 54 l36 47 -27 3 c-18 2 -32
-3 -40 -15 -44 -60 -40 -59 -63 -20 -16 24 -31 36 -52 39 -17 3 -30 2 -30 -1z"/>
<path d="M358 753 c-10 -2 -18 -13 -18 -24 0 -16 5 -18 44 -13 28 4 46 2 51
-5 10 -17 5 -20 -39 -26 -49 -6 -68 -22 -64 -54 4 -37 48 -59 88 -44 18 7 30
8 30 1 0 -5 10 -8 23 -6 20 3 22 8 21 72 -1 59 -4 72 -24 88 -21 17 -70 22
-112 11z m92 -103 c3 0 -5 -9 -18 -20 -24 -20 -52 -17 -52 5 0 20 23 25 70 15z"/>
<path d="M549 673 c41 -95 42 -117 4 -110 -29 5 -53 -27 -27 -37 37 -14 73 -6
92 22 17 25 92 193 92 206 0 3 -11 6 -24 6 -19 0 -27 -9 -41 -47 -10 -27 -21
-52 -25 -56 -4 -5 -18 17 -31 47 -20 49 -26 56 -50 56 l-27 0 37 -87z"/>
<path d="M929 725 c-1 -19 -1 -44 -1 -55 0 -85 1 -90 27 -90 24 0 25 3 25 58
0 53 2 58 30 74 17 9 30 22 30 28 0 17 -29 23 -45 10 -10 -9 -15 -9 -15 -1 0
6 -11 11 -25 11 -22 0 -25 -5 -26 -35z"/>
<path d="M1083 750 c-15 -6 -21 -15 -17 -24 5 -12 16 -14 49 -10 28 4 45 2 50
-5 9 -16 7 -18 -40 -25 -70 -11 -93 -68 -39 -97 19 -10 32 -10 55 -2 17 7 31
7 35 2 3 -5 14 -9 25 -9 19 0 21 8 21 70 0 56 -4 71 -24 90 -23 21 -75 26
-115 10z m87 -105 c0 -17 -29 -34 -47 -28 -31 11 -10 40 30 42 9 1 17 -6 17
-14z"/>
<path d="M1516 739 c-28 -25 -36 -62 -22 -107 10 -31 60 -54 103 -49 42 6 56
18 48 40 -5 12 -12 14 -35 5 -20 -6 -35 -6 -49 2 -36 19 -23 28 39 28 69 -1
75 2 67 34 -11 43 -32 60 -78 65 -38 4 -50 1 -73 -18z m88 -25 c29 -11 16 -24
-24 -24 -38 0 -49 8 -33 23 8 9 36 9 57 1z"/>
</g>
</svg>
